<svg width="56" height="32" viewBox="0 0 56 32" fill="none" xmlns="http://www.w3.org/2000/svg">
<path fill-rule="evenodd" clip-rule="evenodd" d="M41.4142 0.585786C40.6332 -0.195262 39.3668 -0.195262 38.5858 0.585786C37.8047 1.36683 37.8047 2.63317 38.5858 3.41421L49.1716 14H2C0.89543 14 0 14.8954 0 16C0 17.1046 0.89543 18 2 18H49.1716L38.5858 28.5858C37.8047 29.3668 37.8047 30.6332 38.5858 31.4142C39.3668 32.1953 40.6332 32.1953 41.4142 31.4142L55.4128 17.4156C55.4169 17.4115 55.421 17.4074 55.4251 17.4032C55.806 17.0165 55.9977 16.5132 56 16.0092C56 16.0062 56 16.0031 56 16C56 15.9969 56 15.9938 56 15.9908C55.9988 15.7229 55.9449 15.4676 55.8482 15.2344C55.7525 15.003 55.6115 14.786 55.4251 14.5968C55.4211 14.5927 55.417 14.5886 55.413 14.5846M55.413 14.5846L41.4142 0.585786L55.413 14.5846Z" fill="#202332"/>
</svg>
