<svg width="19" height="12" viewBox="0 0 19 12" fill="none" xmlns="http://www.w3.org/2000/svg">
<path fill-rule="evenodd" clip-rule="evenodd" d="M14.138 0.861949C13.8776 0.6016 13.4555 0.6016 13.1952 0.861949C12.9348 1.1223 12.9348 1.54441 13.1952 1.80476L16.7238 5.33335H0.999919C0.631729 5.33335 0.333252 5.63183 0.333252 6.00002C0.333252 6.36821 0.631729 6.66669 0.999919 6.66669H16.7238L13.1952 10.1953C12.9348 10.4556 12.9348 10.8777 13.1952 11.1381C13.4555 11.3984 13.8776 11.3984 14.138 11.1381L18.8042 6.4719C18.8056 6.47053 18.8069 6.46915 18.8083 6.46777C18.9353 6.33885 18.9991 6.17109 18.9999 6.0031C18.9999 6.00207 18.9999 6.00105 18.9999 6.00002C18.9999 5.99899 18.9999 5.99797 18.9999 5.99694C18.9995 5.90767 18.9816 5.82254 18.9493 5.74483C18.9174 5.6677 18.8704 5.59534 18.8083 5.53227C18.8069 5.53091 18.8056 5.52956 18.8042 5.5282M18.8042 5.5282L14.138 0.861949L18.8042 5.5282Z" fill="#202332"/>
</svg>
