<svg width="30" height="26" viewBox="0 0 30 26" fill="none" xmlns="http://www.w3.org/2000/svg">
<path d="M29.8015 3.98384C29.6755 3.8152 29.4994 3.69066 29.2984 3.62797C29.0974 3.56528 28.8818 3.56764 28.6822 3.63471C27.4555 4.0472 26.1808 4.2999 24.8895 4.38654C24.1605 3.36026 23.1272 2.58926 21.9358 2.18267C20.7444 1.77608 19.4552 1.75451 18.2509 2.121C17.0466 2.48749 15.988 3.22348 15.225 4.2248C14.4621 5.22611 14.0334 6.44203 13.9996 7.70045C12.0483 7.30431 10.1958 6.52268 8.55056 5.40136C6.9053 4.28005 5.5004 2.84162 4.41822 1.17036C4.31321 1.00901 4.16386 0.881403 3.98811 0.802854C3.81236 0.724305 3.61767 0.698154 3.42741 0.727542C3.23716 0.756929 3.05944 0.840606 2.91557 0.968525C2.77171 1.09644 2.66783 1.26317 2.6164 1.44868C1.73759 4.62529 1.79966 7.98868 2.79508 11.1307C3.7905 14.2727 5.67647 17.0583 8.22413 19.1494C6.08039 20.3292 3.67958 20.9641 1.23286 20.9984C1.01243 21.0017 0.799269 21.0777 0.62647 21.2146C0.45367 21.3515 0.330901 21.5416 0.277224 21.7554C0.223546 21.9692 0.241964 22.1948 0.329617 22.3971C0.41727 22.5994 0.569255 22.767 0.761973 22.8741C3.26832 24.2616 6.08459 24.9933 8.94934 25.0014C11.8141 25.0095 14.6344 24.2936 17.1486 22.9203C19.6627 21.5469 21.7891 19.5606 23.3303 17.1458C24.8715 14.731 25.7777 11.9658 25.9645 9.10719C27.4569 8.0097 28.7593 6.67501 29.8198 5.1562C29.9406 4.98374 30.0038 4.77756 30.0006 4.56705C29.9973 4.35654 29.9276 4.15244 29.8015 3.98384Z" fill="white"/>
</svg>
