<svg width="28" height="24" viewBox="0 0 28 24" fill="none" xmlns="http://www.w3.org/2000/svg">
<path d="M26.8342 4.3433C26.5885 2.79606 25.174 1.44401 23.6085 1.26469C17.22 0.568489 10.7747 0.568673 4.38624 1.26524C2.82642 1.44395 1.41187 2.79588 1.16492 4.34892C0.388403 9.42212 0.388712 14.584 1.16584 19.6571C1.41181 21.2044 2.82642 22.5563 4.39149 22.7355C7.5825 23.0836 10.7901 23.2579 14 23.2577C17.2099 23.2579 20.4175 23.0836 23.6085 22.7355L23.6137 22.735C25.1737 22.5564 26.5883 21.2044 26.8351 19.6513C27.6116 14.5781 27.6113 9.41635 26.8342 4.3433ZM18.5547 12.8321L12.5547 16.8321C12.4041 16.9325 12.2291 16.9902 12.0483 16.9989C11.8675 17.0076 11.6877 16.9672 11.5282 16.8818C11.3686 16.7963 11.2352 16.6692 11.1422 16.514C11.0491 16.3587 11 16.1811 11 16.0001V8.0001C11 7.8191 11.0491 7.6415 11.1422 7.48623C11.2352 7.33097 11.3686 7.20385 11.5282 7.11845C11.6877 7.03305 11.8675 6.99256 12.0483 7.00129C12.2291 7.01003 12.4041 7.06767 12.5547 7.16807L18.5547 11.1681C18.6917 11.2594 18.804 11.3831 18.8817 11.5282C18.9594 11.6734 19 11.8355 19 12.0001C19 12.1647 18.9594 12.3268 18.8817 12.472C18.804 12.6171 18.6917 12.7408 18.5547 12.8321Z" fill="white"/>
</svg>
